{
  "accessors": [
    {
      "bufferView": 2,
      "componentType": 5126,
      "count": 1072,
      "max": [
        3.0383443832397461,
        3.0969223976135254,
        5.8642549514770508
      ],
      "min": [
        -3.0383443832397461,
        -3.0560803413391113,
        -5.8642549514770508
      ],
      "type": "VEC3"
    },
    {
      "bufferView": 2,
      "byteOffset": 12864,
      "componentType": 5126,
      "count": 1072,
      "max": [
        1,
        1,
        1
      ],
      "min": [
        -1,
        -1,
        -1
      ],
      "type": "VEC3"
    },
    {
      "bufferView": 1,
      "componentType": 5126,
      "count": 1072,
      "max": [
        0.96846216917037964,
        0.96592205762863159
      ],
      "min": [
        0.03855842724442482,
        0.14218291640281677
      ],
      "type": "VEC2"
    },
    {
      "bufferView": 0,
      "componentType": 5125,
      "count": 3456,
      "max": [
        1071
      ],
      "min": [
        0
      ],
      "type": "SCALAR"
    },
    {
      "bufferView": 2,
      "byteOffset": 25728,
      "componentType": 5126,
      "count": 484,
      "max": [
        4.0922880172729492,
        8.2457914352416992,
        4.0668163299560547
      ],
      "min": [
        -3.631068229675293,
        0.28297007083892822,
        -8.8468990325927734
      ],
      "type": "VEC3"
    },
    {
      "bufferView": 2,
      "byteOffset": 31536,
      "componentType": 5126,
      "count": 484,
      "max": [
        0.98220860958099365,
        0.97008717060089111,
        0.99007058143615723
      ],
      "min": [
        -0.98766344785690308,
        -0.99836021661758423,
        -0.9982227087020874
      ],
      "type": "VEC3"
    },
    {
      "bufferView": 1,
      "byteOffset": 8576,
      "componentType": 5126,
      "count": 484,
      "max": [
        0.95035374164581299,
        0.8906625509262085
      ],
      "min": [
        5.9604644775390625e-08,
        0.10933727025985718
      ],
      "type": "VEC2"
    },
    {
      "bufferView": 1,
      "byteOffset": 12448,
      "componentType": 5126,
      "count": 484,
      "max": [
        0.95035374164581299,
        0.8906625509262085
      ],
      "min": [
        5.9604644775390625e-08,
        0.10933727025985718
      ],
      "type": "VEC2"
    },
    {
      "bufferView": 0,
      "byteOffset": 13824,
      "componentType": 5125,
      "count": 726,
      "max": [
        483
      ],
      "min": [
        0
      ],
      "type": "SCALAR"
    },
    {
      "bufferView": 2,
      "byteOffset": 37344,
      "componentType": 5126,
      "count": 484,
      "max": [
        3.8084588050842285,
        8.5638046264648438,
        3.1441426277160645
      ],
      "min": [
        -4.0401153564453125,
        -0.17734676599502563,
        -7.9569072723388672
      ],
      "type": "VEC3"
    },
    {
      "bufferView": 2,
      "byteOffset": 43152,
      "componentType": 5126,
      "count": 484,
      "max": [
        0.99762177467346191,
        0.97006905078887939,
        0.99007058143615723
      ],
      "min": [
        -0.9916350245475769,
        -0.99835854768753052,
        -0.9982227087020874
      ],
      "type": "VEC3"
    },
    {
      "bufferView": 1,
      "byteOffset": 16320,
      "componentType": 5126,
      "count": 484,
      "max": [
        0.95035374164581299,
        0.8906625509262085
      ],
      "min": [
        5.9604644775390625e-08,
        0.10933727025985718
      ],
      "type": "VEC2"
    },
    {
      "bufferView": 1,
      "byteOffset": 20192,
      "componentType": 5126,
      "count": 484,
      "max": [
        0.95035374164581299,
        0.8906625509262085
      ],
      "min": [
        5.9604644775390625e-08,
        0.10933727025985718
      ],
      "type": "VEC2"
    },
    {
      "bufferView": 0,
      "byteOffset": 16728,
      "componentType": 5125,
      "count": 726,
      "max": [
        483
      ],
      "min": [
        0
      ],
      "type": "SCALAR"
    }
  ],
  "asset": {
    "extras": {
      "author": "ThomasWhalley (https://sketchfab.com/ThomasWhalley)",
      "license": "CC-BY-4.0 (http://creativecommons.org/licenses/by/4.0/)",
      "source": "https://sketchfab.com/3d-models/hay-bale-16f3d0337ad54e92b186d8a6e8494699",
      "title": "Hay Bale"
    },
    "generator": "Sketchfab-8.31.0",
    "version": "2.0"
  },
  "bufferViews": [
    {
      "buffer": 0,
      "byteLength": 19632,
      "byteOffset": 0,
      "name": "floatBufferViews",
      "target": 34963
    },
    {
      "buffer": 0,
      "byteLength": 24064,
      "byteOffset": 19632,
      "byteStride": 8,
      "name": "floatBufferViews",
      "target": 34962
    },
    {
      "buffer": 0,
      "byteLength": 48960,
      "byteOffset": 43696,
      "byteStride": 12,
      "name": "floatBufferViews",
      "target": 34962
    }
  ],
  "buffers": [
    {
      "byteLength": 92656,
      "uri": "scene.bin"
    }
  ],
  "images": [
    {
      "uri": "textures/lambert1_baseColor.jpeg"
    },
    {
      "uri": "textures/lambert2_baseColor.png"
    }
  ],
  "materials": [
    {
      "doubleSided": true,
      "emissiveFactor": [
        0,
        0,
        0
      ],
      "name": "lambert1",
      "pbrMetallicRoughness": {
        "baseColorFactor": [
          0.80000000000000004,
          0.80000000000000004,
          0.80000000000000004,
          1
        ],
        "baseColorTexture": {
          "index": 0,
          "texCoord": 0
        },
        "metallicFactor": 0,
        "roughnessFactor": 0.59999999999999998
      }
    },
    {
      "alphaMode": "BLEND",
      "doubleSided": true,
      "emissiveFactor": [
        0,
        0,
        0
      ],
      "name": "lambert2",
      "pbrMetallicRoughness": {
        "baseColorFactor": [
          0.80000000000000004,
          0.80000000000000004,
          0.80000000000000004,
          1
        ],
        "baseColorTexture": {
          "index": 1,
          "texCoord": 0
        },
        "metallicFactor": 0,
        "roughnessFactor": 0.59999999999999998
      }
    }
  ],
  "meshes": [
    {
      "name": "pCube1_lambert1_0",
      "primitives": [
        {
          "attributes": {
            "NORMAL": 1,
            "POSITION": 0,
            "TEXCOORD_0": 2
          },
          "indices": 3,
          "material": 0,
          "mode": 4
        }
      ]
    },
    {
      "name": "pPlane46_lambert2_0",
      "primitives": [
        {
          "attributes": {
            "NORMAL": 5,
            "POSITION": 4,
            "TEXCOORD_0": 6,
            "TEXCOORD_1": 7
          },
          "indices": 8,
          "material": 1,
          "mode": 4
        }
      ]
    },
    {
      "name": "pPlane47_lambert2_0",
      "primitives": [
        {
          "attributes": {
            "NORMAL": 10,
            "POSITION": 9,
            "TEXCOORD_0": 11,
            "TEXCOORD_1": 12
          },
          "indices": 13,
          "material": 1,
          "mode": 4
        }
      ]
    }
  ],
  "nodes": [
    {
      "children": [
        1
      ],
      "name": "RootNode (gltf orientation matrix)",
      "rotation": [
        -0.70710678118654746,
        -0,
        -0,
        0.70710678118654757
      ]
    },
    {
      "children": [
        2
      ],
      "name": "RootNode (model correction matrix)"
    },
    {
      "children": [
        3
      ],
      "matrix": [
        1,
        0,
        0,
        0,
        0,
        0,
        1,
        0,
        0,
        -1,
        0,
        0,
        0,
        0,
        0,
        1
      ],
      "name": "62c90515485f4eaf87cd043f5653befb.fbx"
    },
    {
      "children": [
        4,
        6,
        8
      ],
      "name": "RootNode"
    },
    {
      "children": [
        5
      ],
      "matrix": [
        1,
        0,
        0,
        0,
        0,
        1,
        0,
        0,
        0,
        0,
        1,
        0,
        0.10904449224472046,
        3.986809253692627,
        -2.3919200897216797,
        1
      ],
      "name": "pCube1"
    },
    {
      "mesh": 0,
      "name": "pCube1_lambert1_0"
    },
    {
      "children": [
        7
      ],
      "name": "pPlane46"
    },
    {
      "mesh": 1,
      "name": "pPlane46_lambert2_0"
    },
    {
      "children": [
        9
      ],
      "matrix": [
        1,
        0,
        0,
        0,
        0,
        0.8236735463142395,
        0,
        0,
        0,
        0,
        1.1989301443099976,
        0,
        0,
        0.66462236642837524,
        0.4681740403175354,
        1
      ],
      "name": "pPlane47"
    },
    {
      "mesh": 2,
      "name": "pPlane47_lambert2_0"
    }
  ],
  "samplers": [
    {
      "magFilter": 9729,
      "minFilter": 9987,
      "wrapS": 10497,
      "wrapT": 10497
    }
  ],
  "scene": 0,
  "scenes": [
    {
      "name": "OSG_Scene",
      "nodes": [
        0
      ]
    }
  ],
  "textures": [
    {
      "sampler": 0,
      "source": 0
    },
    {
      "sampler": 0,
      "source": 1
    }
  ]
}

