{
    "asset" : {
        "generator" : "Khronos glTF Blender I/O v1.6.16",
        "version" : "2.0"
    },
    "scene" : 0,
    "scenes" : [
        {
            "name" : "Scene",
            "nodes" : [
                1
            ]
        }
    ],
    "nodes" : [
        {
            "mesh" : 0,
            "name" : "tires_rubber_0",
            "scale" : [
                2,
                2,
                2
            ]
        },
        {
            "children" : [
                0
            ],
            "name" : "tires"
        }
    ],
    "materials" : [
        {
            "doubleSided" : true,
            "name" : "rubber",
            "pbrMetallicRoughness" : {
                "baseColorTexture" : {
                    "index" : 0
                },
                "metallicFactor" : 0,
                "metallicRoughnessTexture" : {
                    "index" : 1
                }
            }
        }
    ],
    "meshes" : [
        {
            "name" : "tires_rubber_0",
            "primitives" : [
                {
                    "attributes" : {
                        "POSITION" : 0,
                        "NORMAL" : 1,
                        "TEXCOORD_0" : 2,
                        "TEXCOORD_1" : 3
                    },
                    "indices" : 4,
                    "material" : 0
                }
            ]
        }
    ],
    "textures" : [
        {
            "sampler" : 0,
            "source" : 0
        },
        {
            "sampler" : 0,
            "source" : 1
        }
    ],
    "images" : [
        {
            "bufferView" : 5,
            "mimeType" : "image/png",
            "name" : "rubber_baseColor"
        },
        {
            "bufferView" : 6,
            "mimeType" : "image/png",
            "name" : "rubber_metallicRoughness"
        }
    ],
    "accessors" : [
        {
            "bufferView" : 0,
            "componentType" : 5126,
            "count" : 2597,
            "max" : [
                0.22412049770355225,
                0.45535409450531006,
                0.45672354102134705
            ],
            "min" : [
                -0.13379621505737305,
                -0.45412302017211914,
                -0.4527546465396881
            ],
            "type" : "VEC3"
        },
        {
            "bufferView" : 1,
            "componentType" : 5126,
            "count" : 2597,
            "type" : "VEC3"
        },
        {
            "bufferView" : 2,
            "componentType" : 5126,
            "count" : 2597,
            "type" : "VEC2"
        },
        {
            "bufferView" : 3,
            "componentType" : 5126,
            "count" : 2597,
            "type" : "VEC2"
        },
        {
            "bufferView" : 4,
            "componentType" : 5123,
            "count" : 3969,
            "type" : "SCALAR"
        }
    ],
    "bufferViews" : [
        {
            "buffer" : 0,
            "byteLength" : 31164,
            "byteOffset" : 0
        },
        {
            "buffer" : 0,
            "byteLength" : 31164,
            "byteOffset" : 31164
        },
        {
            "buffer" : 0,
            "byteLength" : 20776,
            "byteOffset" : 62328
        },
        {
            "buffer" : 0,
            "byteLength" : 20776,
            "byteOffset" : 83104
        },
        {
            "buffer" : 0,
            "byteLength" : 7938,
            "byteOffset" : 103880
        },
        {
            "buffer" : 0,
            "byteLength" : 100169,
            "byteOffset" : 111820
        },
        {
            "buffer" : 0,
            "byteLength" : 79847,
            "byteOffset" : 211992
        }
    ],
    "samplers" : [
        {
            "magFilter" : 9729,
            "minFilter" : 9987
        }
    ],
    "buffers" : [
        {
            "byteLength" : 291840,
            "uri" : "data:application/octet-stream;base64,"
        }
    ]
}
