{
  "accessors": [
    {
      "bufferView": 2,
      "componentType": 5126,
      "count": 216,
      "max": [
        0.5062223672866821,
        0.5057305693626404,
        0.35831037163734436
      ],
      "min": [
        -0.5168163776397705,
        0.0014303970383480191,
        -0.3715267777442932
      ],
      "type": "VEC3"
    },
    {
      "bufferView": 2,
      "byteOffset": 2592,
      "componentType": 5126,
      "count": 216,
      "max": [
        0.9913362264633179,
        0.9999120831489563,
        0.9945821166038513
      ],
      "min": [
        -0.9918736815452576,
        -0.9999441504478455,
        -0.9946039319038391
      ],
      "type": "VEC3"
    },
    {
      "bufferView": 3,
      "componentType": 5126,
      "count": 216,
      "max": [
        0.6367652416229248,
        0.99460369348526,
        0.9999998807907104,
        1.0
      ],
      "min": [
        -0.6367630958557129,
        -0.9945820569992065,
        -0.9999998807907104,
        1.0
      ],
      "type": "VEC4"
    },
    {
      "bufferView": 1,
      "componentType": 5126,
      "count": 216,
      "max": [
        0.9990846514701843,
        0.9995765089988708
      ],
      "min": [
        0.0006903358735144138,
        0.0002987980842590332
      ],
      "type": "VEC2"
    },
    {
      "bufferView": 1,
      "byteOffset": 1728,
      "componentType": 5126,
      "count": 216,
      "max": [
        0.9990846514701843,
        0.9995765089988708
      ],
      "min": [
        0.0006903358735144138,
        0.0002987980842590332
      ],
      "type": "VEC2"
    },
    {
      "bufferView": 1,
      "byteOffset": 3456,
      "componentType": 5126,
      "count": 216,
      "max": [
        0.9990846514701843,
        0.9995765089988708
      ],
      "min": [
        0.0006903358735144138,
        0.0002987980842590332
      ],
      "type": "VEC2"
    },
    {
      "bufferView": 1,
      "byteOffset": 5184,
      "componentType": 5126,
      "count": 216,
      "max": [
        0.9990846514701843,
        0.9995765089988708
      ],
      "min": [
        0.0006903358735144138,
        0.0002987980842590332
      ],
      "type": "VEC2"
    },
    {
      "bufferView": 1,
      "byteOffset": 6912,
      "componentType": 5126,
      "count": 216,
      "max": [
        0.9990846514701843,
        0.9995765089988708
      ],
      "min": [
        0.0006903358735144138,
        0.0002987980842590332
      ],
      "type": "VEC2"
    },
    {
      "bufferView": 0,
      "componentType": 5125,
      "count": 696,
      "type": "SCALAR"
    },
    {
      "bufferView": 2,
      "byteOffset": 5184,
      "componentType": 5126,
      "count": 900,
      "max": [
        0.5769274830818176,
        0.5494338870048523,
        0.42266371846199036
      ],
      "min": [
        -0.5769274830818176,
        -0.007463617250323296,
        -0.42266371846199036
      ],
      "type": "VEC3"
    },
    {
      "bufferView": 2,
      "byteOffset": 15984,
      "componentType": 5126,
      "count": 900,
      "max": [
        0.7810532450675964,
        0.9986512064933777,
        0.9992399215698242
      ],
      "min": [
        -0.7810523509979248,
        -0.9994850158691406,
        -0.996269941329956
      ],
      "type": "VEC3"
    },
    {
      "bufferView": 3,
      "byteOffset": 3456,
      "componentType": 5126,
      "count": 900,
      "max": [
        1.0,
        0.9070071578025818,
        1.0,
        1.0
      ],
      "min": [
        -1.0,
        -0.5057041645050049,
        -1.0,
        -1.0
      ],
      "type": "VEC4"
    },
    {
      "bufferView": 1,
      "byteOffset": 8640,
      "componentType": 5126,
      "count": 900,
      "max": [
        0.9768255352973938,
        0.9969168901443481
      ],
      "min": [
        0.0011049089953303337,
        0.010366499423980713
      ],
      "type": "VEC2"
    },
    {
      "bufferView": 1,
      "byteOffset": 15840,
      "componentType": 5126,
      "count": 900,
      "max": [
        0.9768255352973938,
        0.9969168901443481
      ],
      "min": [
        0.0011049089953303337,
        0.010366499423980713
      ],
      "type": "VEC2"
    },
    {
      "bufferView": 1,
      "byteOffset": 23040,
      "componentType": 5126,
      "count": 900,
      "max": [
        0.9768255352973938,
        0.9969168901443481
      ],
      "min": [
        0.0011049089953303337,
        0.010366499423980713
      ],
      "type": "VEC2"
    },
    {
      "bufferView": 1,
      "byteOffset": 30240,
      "componentType": 5126,
      "count": 900,
      "max": [
        0.9768255352973938,
        0.9969168901443481
      ],
      "min": [
        0.0011049089953303337,
        0.010366499423980713
      ],
      "type": "VEC2"
    },
    {
      "bufferView": 1,
      "byteOffset": 37440,
      "componentType": 5126,
      "count": 900,
      "max": [
        0.9768255352973938,
        0.9969168901443481
      ],
      "min": [
        0.0011049089953303337,
        0.010366499423980713
      ],
      "type": "VEC2"
    },
    {
      "bufferView": 0,
      "byteOffset": 2784,
      "componentType": 5125,
      "count": 1350,
      "type": "SCALAR"
    }
  ],
  "asset": {
    "extras": {
      "author": "friidilinen (https://sketchfab.com/friidilinen)",
      "license": "CC-BY-NC-4.0 (http://creativecommons.org/licenses/by-nc/4.0/)",
      "source": "https://sketchfab.com/3d-models/hay-bale-f0982fa719f44931970611eff2720406",
      "title": "hay_bale"
    },
    "generator": "Sketchfab-12.39.0",
    "version": "2.0"
  },
  "bufferViews": [
    {
      "buffer": 0,
      "byteLength": 8184,
      "name": "floatBufferViews",
      "target": 34963
    },
    {
      "buffer": 0,
      "byteLength": 44640,
      "byteOffset": 8184,
      "byteStride": 8,
      "name": "floatBufferViews",
      "target": 34962
    },
    {
      "buffer": 0,
      "byteLength": 26784,
      "byteOffset": 52824,
      "byteStride": 12,
      "name": "floatBufferViews",
      "target": 34962
    },
    {
      "buffer": 0,
      "byteLength": 17856,
      "byteOffset": 79608,
      "byteStride": 16,
      "name": "floatBufferViews",
      "target": 34962
    }
  ],
  "buffers": [
    {
      "byteLength": 97464,
      "uri": "scene.bin"
    }
  ],
  "images": [
    {
      "uri": "textures/hay_base_mat_baseColor.png"
    },
    {
      "uri": "textures/hay_base_mat_metallicRoughness.png"
    },
    {
      "uri": "textures/hay_base_mat_normal.png"
    },
    {
      "uri": "textures/hay_opac_mat_baseColor.png"
    }
  ],
  "materials": [
    {
      "name": "hay_base_mat",
      "normalTexture": {
        "index": 2
      },
      "occlusionTexture": {
        "index": 1
      },
      "pbrMetallicRoughness": {
        "baseColorFactor": [
          0.8,
          0.8,
          0.8,
          1.0
        ],
        "baseColorTexture": {
          "index": 0
        },
        "metallicRoughnessTexture": {
          "index": 1
        }
      }
    },
    {
      "alphaMode": "BLEND",
      "name": "hay_opac_mat",
      "normalTexture": {
        "index": 2
      },
      "occlusionTexture": {
        "index": 1
      },
      "pbrMetallicRoughness": {
        "baseColorFactor": [
          0.8,
          0.8,
          0.8,
          1.0
        ],
        "baseColorTexture": {
          "index": 3
        },
        "metallicRoughnessTexture": {
          "index": 1
        }
      }
    }
  ],
  "meshes": [
    {
      "name": "Object_0",
      "primitives": [
        {
          "attributes": {
            "NORMAL": 1,
            "POSITION": 0,
            "TANGENT": 2,
            "TEXCOORD_0": 3,
            "TEXCOORD_1": 4,
            "TEXCOORD_2": 5,
            "TEXCOORD_3": 6,
            "TEXCOORD_4": 7
          },
          "indices": 8,
          "material": 0,
          "mode": 4
        }
      ]
    },
    {
      "name": "Object_1",
      "primitives": [
        {
          "attributes": {
            "NORMAL": 10,
            "POSITION": 9,
            "TANGENT": 11,
            "TEXCOORD_0": 12,
            "TEXCOORD_1": 13,
            "TEXCOORD_2": 14,
            "TEXCOORD_3": 15,
            "TEXCOORD_4": 16
          },
          "indices": 17,
          "material": 1,
          "mode": 4
        }
      ]
    }
  ],
  "nodes": [
    {
      "children": [
        1
      ],
      "matrix": [
        1.0,
        0.0,
        0.0,
        0.0,
        0.0,
        2.220446049250313e-16,
        -1.0,
        0.0,
        0.0,
        1.0,
        2.220446049250313e-16,
        0.0,
        0.0,
        0.0,
        0.0,
        1.0
      ],
      "name": "Sketchfab_model"
    },
    {
      "children": [
        2
      ],
      "name": "root"
    },
    {
      "children": [
        3,
        5
      ],
      "matrix": [
        1.0,
        0.0,
        0.0,
        0.0,
        0.0,
        2.220446049250313e-16,
        1.0,
        0.0,
        0.0,
        -1.0,
        2.220446049250313e-16,
        0.0,
        0.0,
        0.0,
        0.0,
        1.0
      ],
      "name": "GLTF_SceneRootNode"
    },
    {
      "children": [
        4
      ],
      "name": "Hay_0"
    },
    {
      "mesh": 0,
      "name": "Object_4"
    },
    {
      "children": [
        6
      ],
      "name": "grass_1"
    },
    {
      "mesh": 1,
      "name": "Object_6"
    }
  ],
  "samplers": [
    {
      "magFilter": 9729,
      "minFilter": 9987,
      "wrapS": 10497,
      "wrapT": 10497
    }
  ],
  "scene": 0,
  "scenes": [
    {
      "name": "Sketchfab_Scene",
      "nodes": [
        0
      ]
    }
  ],
  "textures": [
    {
      "sampler": 0,
      "source": 0
    },
    {
      "sampler": 0,
      "source": 1
    },
    {
      "sampler": 0,
      "source": 2
    },
    {
      "sampler": 0,
      "source": 3
    }
  ]
}
